<?xml version="1.0" encoding="iso-8859-1"?>
<!-- Generator: Adobe Illustrator 19.0.0, SVG Export Plug-In . SVG Version: 6.00 Build 0)  -->
<svg version="1.1" id="Capa_1" xmlns="http://www.w3.org/2000/svg" xmlns:xlink="http://www.w3.org/1999/xlink" x="0px" y="0px"
	 viewBox="0 0 512 512" style="enable-background:new 0 0 512 512;" xml:space="preserve">
<rect x="97.18" y="85.33" style="fill:#98D8F5;" width="317.64" height="405.33"/>
<rect x="257.18" y="85.33" style="fill:#4BBAED;" width="157.64" height="405.33"/>
<rect x="152.03" style="fill:#DFDEE0;" width="207.94" height="490.67"/>
<rect x="256" style="fill:#BEBDC2;" width="103.97" height="490.67"/>
<rect x="40.5" y="422.33" style="fill:#FF9900;" width="30" height="68.33"/>
<path style="fill:#60DD4D;" d="M88.517,342.153c-10.348-16.773-20.55-30.526-20.979-31.104L55.5,294.862L43.463,311.05
	c-0.429,0.578-10.632,14.331-20.979,31.104C2.331,374.821,0,389.005,0,396.833c0,30.603,24.897,55.5,55.5,55.5
	s55.5-24.897,55.5-55.5C111,389.005,108.67,374.821,88.517,342.153z"/>
<path style="fill:#1EBA4A;" d="M88.517,342.153c-10.347-16.773-20.55-30.526-20.979-31.104L55.5,294.862v157.471
	c30.603,0,55.5-24.897,55.5-55.5C111,389.005,108.67,374.821,88.517,342.153z"/>
<rect x="441.5" y="422.33" style="fill:#FF9900;" width="30" height="68.33"/>
<path style="fill:#60DD4D;" d="M489.517,342.153c-10.348-16.773-20.55-30.526-20.979-31.104L456.5,294.862l-12.037,16.188
	c-0.429,0.578-10.632,14.331-20.979,31.104C403.331,374.821,401,389.005,401,396.833c0,30.603,24.897,55.5,55.5,55.5
	c30.604,0,55.5-24.897,55.5-55.5C512,389.005,509.67,374.821,489.517,342.153z"/>
<path style="fill:#1EBA4A;" d="M489.517,342.153c-10.348-16.773-20.55-30.526-20.979-31.104L456.5,294.862v157.471
	c30.604,0,55.5-24.897,55.5-55.5C512,389.005,509.67,374.821,489.517,342.153z"/>
<rect x="202.67" y="378.67" style="fill:#FFFFFF;" width="30" height="42.667"/>
<rect x="279.33" y="378.67" style="fill:#DFDEE0;" width="30" height="42.667"/>
<rect x="202.67" y="282.67" style="fill:#FFFFFF;" width="30" height="42.667"/>
<rect x="279.33" y="282.67" style="fill:#DFDEE0;" width="30" height="42.667"/>
<rect x="202.67" y="186.67" style="fill:#FFFFFF;" width="30" height="42.667"/>
<rect x="279.33" y="186.67" style="fill:#DFDEE0;" width="30" height="42.667"/>
<rect x="202.67" y="90.67" style="fill:#FFFFFF;" width="30" height="42.667"/>
<rect x="279.33" y="90.67" style="fill:#DFDEE0;" width="30" height="42.667"/>
<rect y="482" style="fill:#BEBDC2;" width="512" height="30"/>
<rect x="256" y="482" style="fill:#969696;" width="256" height="30"/>
<g>
</g>
<g>
</g>
<g>
</g>
<g>
</g>
<g>
</g>
<g>
</g>
<g>
</g>
<g>
</g>
<g>
</g>
<g>
</g>
<g>
</g>
<g>
</g>
<g>
</g>
<g>
</g>
<g>
</g>
</svg>
