<svg height="512pt" viewBox="0 -25 512.00007 512" width="512pt" xmlns="http://www.w3.org/2000/svg"><g fill="#00eccf"><path d="m.484375 325.71875c.117187-1.40625.257813-2.804688.414063-4.199219-.15625 1.394531-.296876 2.792969-.414063 4.199219zm0 0"/><path d="m.136719 331.246094c.066406-1.574219.15625-3.140625.277343-4.703125-.121093 1.5625-.210937 3.128906-.277343 4.703125zm0 0"/><path d="m1 320.628906c.183594-1.527344.394531-3.042968.632812-4.558594-.238281 1.515626-.449218 3.035157-.632812 4.558594zm0 0"/><path d="m0 337.183594c0-1.632813.0390625-3.257813.0976562-4.878906-.0585937 1.625-.0976562 3.25-.0976562 4.878906zm0 0"/><path d="m1.8125 314.957031c.238281-1.460937.492188-2.917969.777344-4.363281-.285156 1.445312-.539063 2.902344-.777344 4.363281zm0 0"/></g><path d="m474.34375 462.105469h-144.296875c-12.273437 0-23.03125-5.449219-30.292969-15.34375-7.261718-9.890625-9.238281-21.785157-5.558594-33.496094l62.285157-198.257813v-93.132812c0-8.414062 6.820312-15.234375 15.234375-15.234375h60.9375c8.414062 0 15.234375 6.820313 15.234375 15.234375v92.628906l62.3125 198.785156c3.667969 11.707032 1.691406 23.597657-5.570313 33.484376-7.265625 9.886718-18.019531 15.332031-30.285156 15.332031zm0 0" fill="#f5f0eb"/><path d="m510.199219 413.289062-62.3125-198.785156v-92.628906c0-8.414062-6.820313-15.234375-15.234375-15.234375h-30.46875v355.464844h72.160156c12.265625 0 23.023438-5.445313 30.285156-15.332031 7.261719-9.886719 9.238282-21.78125 5.570313-33.484376zm0 0" fill="#ebe1dc"/><path d="m323.265625 422.398438c-.75 2.375-.425781 4.328124 1.050781 6.335937 1.472656 2.007813 3.238282 2.902344 5.730469 2.902344h144.296875c2.488281 0 4.253906-.894531 5.726562-2.898438 1.472657-2.007812 1.800782-3.960937 1.054688-6.335937l-25.492188-81.324219h-106.820312zm0 0" fill="#fdbf00"/><path d="m190.285156 462.105469h-106.355468c-2.304688 0-4.582032-.523438-6.65625-1.53125-22.8125-11.078125-42.097657-28.25-55.777344-49.660157-14.0625-22.007812-21.496094-47.5-21.496094-73.730468 0-58.578125 37.027344-110.15625 91.40625-129.308594v-192.640625c0-8.414063 6.820312-15.234375 15.234375-15.234375h60.9375c8.410156 0 15.234375 6.820312 15.234375 15.234375v192.640625c54.375 19.152344 91.402344 70.730469 91.402344 129.308594 0 26.226562-7.429688 51.722656-21.496094 73.730468-13.679688 21.410157-32.964844 38.582032-55.777344 49.660157-2.074218 1.007812-4.347656 1.53125-6.65625 1.53125zm0 0" fill="#f5f0eb"/><path d="m182.8125 207.875v-192.640625c0-8.414063-6.824219-15.234375-15.234375-15.234375h-30.5v462.105469h53.207031c2.308594 0 4.582032-.523438 6.65625-1.53125 22.8125-11.078125 42.097656-28.25 55.777344-49.660157 14.066406-22.007812 21.496094-47.5 21.496094-73.730468 0-58.578125-37.027344-110.152344-91.402344-129.308594zm0 0" fill="#ebe1dc"/><path d="m183.828125 30.46875h-93.4375c-8.414063 0-15.234375-6.820312-15.234375-15.234375s6.820312-15.234375 15.234375-15.234375h93.4375c8.410156 0 15.234375 6.820312 15.234375 15.234375s-6.824219 15.234375-15.234375 15.234375zm0 0" fill="#ebe1dc"/><path d="m448.902344 137.109375h-93.4375c-8.414063 0-15.234375-6.820313-15.234375-15.234375s6.820312-15.234375 15.234375-15.234375h93.4375c8.414062 0 15.234375 6.820313 15.234375 15.234375s-6.820313 15.234375-15.234375 15.234375zm0 0" fill="#ebe1dc"/><path d="m183.828125 0h-46.75v30.46875h46.75c8.410156 0 15.234375-6.820312 15.234375-15.234375s-6.824219-15.234375-15.234375-15.234375zm0 0" fill="#dcd2cd"/><path d="m448.902344 106.640625h-46.511719v30.46875h46.511719c8.414062 0 15.234375-6.820313 15.234375-15.234375s-6.820313-15.234375-15.234375-15.234375zm0 0" fill="#dcd2cd"/><path d="m30.46875 337.183594c0 40.058594 21.78125 75.945312 57.085938 94.453125h99.109374c35.300782-18.511719 57.085938-54.394531 57.085938-94.453125 0-9.25-1.195312-18.277344-3.441406-26.914063h-206.398438c-2.25 8.640625-3.441406 17.664063-3.441406 26.914063zm0 0" fill="#00eccf"/><path d="m137.078125 431.636719h49.585937c35.300782-18.511719 57.085938-54.394531 57.085938-94.453125 0-9.25-1.195312-18.277344-3.441406-26.914063h-103.230469zm0 0" fill="#00cab1"/><path d="m402.386719 431.636719h71.957031c2.488281 0 4.253906-.894531 5.726562-2.898438 1.472657-2.007812 1.800782-3.960937 1.054688-6.335937l-25.492188-81.324219h-53.246093zm0 0" fill="#ff9100"/></svg>